. 
 
http://www.torrenting.com          :     Once & For all ;)


               www . Torrenting . Com 

(((((((((((((= Enjoy No RAR releases =))))))))))))))))))))


...................................NFO:....................................

.[img]http://img854.imageshack.us/img854/3077/4eb1eb2227e14.png[/img]

[color=blue][size=5]Spacedogs.2010.XViD.AC3.SeT-CM8[/size][/color]

[color=blue][size=4]Schoolbooks say that Belka and Strelka were first space dogs. But the dogs say that people dissemble a lot.[/size][/color]

[url]http://www.imdb.com/title/tt1272051/[/url]

[size=5][color=blue]CM8 Doing It Right The First Time[/color][/size] :D

Source:  Space Dogs 3D 2010 DVDRip XviD-SPRiNTER


Complete name                    : Spacedogs.2010.XViD.AC3.SeT-CM8.avi
Format                           : AVI
Format/Info                      : Audio Video Interleave
File size                        : 1.26 GiB
Duration                         : 1h 24mn
Overall bit rate                 : 2 126 Kbps

Video
ID                               : 0
Format                           : xvid
Codec ID                         : xvid
Duration                         : 1h 24mn
Bit rate                         : 1 796 Kbps
Width                            : 720 pixels
Height                           : 400 pixels
Display aspect ratio             : 16:9
Frame rate                       : 25.000 fps
Bits/(Pixel*Frame)               : 0.249
Stream size                      : 1.06 GiB (84%)

Audio
ID                               : 1
Format                           : AC-3
Format/Info                      : Audio Coding 3
Mode extension                   : CM (complete main)
Codec ID                         : 2000
Duration                         : 1h 24mn
Bit rate mode                    : Constant
Bit rate                         : 320 Kbps
Channel(s)                       : 2 channels
Channel positions                : Front: L R
Sampling rate                    : 48.0 KHz
Bit depth                        : 16 bits
Compression mode                 : Lossy
Stream size                      : 194 MiB (15%)
Alignment                        : Aligned on interleaves
Interleave, duration             : 40 ms (1.00 video frame)





[img]http://img716.imageshack.us/img716/2033/nbvcfghjuyt.png[/img]
[img]http://img543.imageshack.us/img543/614/poiuyhjkjn.png[/img]
[img]http://img403.imageshack.us/img403/3745/polkmnjiu.png[/img]
[img]http://img850.imageshack.us/img850/1622/zaqwsx.png[/img]
[img]http://img220.imageshack.us/img220/8219/zxcvbnm.png[/img]
[img]http://img803.imageshack.us/img803/2736/asdfghjkn.png[/img]
[img]http://img638.imageshack.us/img638/3435/qwertyuio.png[/img]


Notes, No Disrespect but source was horrible, Fixed AR, colour, contrast blah blah blah.
yes its in English, no it doesnt have subs and yes its all good.  ;)


[size=4][color=blue]LOOKING FOR ANYTHING YOU WANT TO LOOK AND SOUND BETTER

CM8@hushmail.com[/color][/size]


big shout out to my Homies Mr Hive , Sir Unevano, Super TED, Pinny and Mr Simmo.
Greets to SAiNTS,DTRG,SANTi,BDK, THC,SAFC, SiC, AMIABLE and mSD
 all the other Legends out there Past and Present..